<svg width="28" height="28" viewBox="0 0 28 28" fill="none" xmlns="http://www.w3.org/2000/svg">
<rect width="28" height="28" rx="8" fill="#ECECEC"/>
<path d="M14.625 17.2656H15.1667C15.7083 17.2656 16.1583 16.7823 16.1583 16.199C16.1583 15.474 15.9 15.3323 15.475 15.1823L14.6333 14.8906V17.2656H14.625Z" fill="#1D223D"/>
<path d="M13.9749 5.58205C9.37489 5.59871 5.64989 9.34038 5.66656 13.9404C5.68323 18.5404 9.42489 22.2654 14.0249 22.2487C18.6249 22.232 22.3499 18.4904 22.3332 13.8904C22.3166 9.29038 18.5749 5.57371 13.9749 5.58205ZM15.8832 13.9987C16.5332 14.2237 17.4082 14.707 17.4082 16.1987C17.4082 17.482 16.3999 18.5154 15.1666 18.5154H14.6249V18.9987C14.6249 19.3404 14.3416 19.6237 13.9999 19.6237C13.6582 19.6237 13.3749 19.3404 13.3749 18.9987V18.5154H13.0749C11.7082 18.5154 10.5999 17.3654 10.5999 15.9487C10.5999 15.607 10.8832 15.3237 11.2249 15.3237C11.5666 15.3237 11.8499 15.607 11.8499 15.9487C11.8499 16.6737 12.3999 17.2654 13.0749 17.2654H13.3749V14.4487L12.1166 13.9987C11.4666 13.7737 10.5916 13.2904 10.5916 11.7987C10.5916 10.5154 11.5999 9.48204 12.8332 9.48204H13.3749V8.99871C13.3749 8.65705 13.6582 8.37371 13.9999 8.37371C14.3416 8.37371 14.6249 8.65705 14.6249 8.99871V9.48204H14.9249C16.2916 9.48204 17.3999 10.632 17.3999 12.0487C17.3999 12.3904 17.1166 12.6737 16.7749 12.6737C16.4332 12.6737 16.1499 12.3904 16.1499 12.0487C16.1499 11.3237 15.5999 10.732 14.9249 10.732H14.6249V13.5487L15.8832 13.9987Z" fill="#1D223D"/>
<path d="M11.8501 11.8094C11.8501 12.5344 12.1084 12.676 12.5334 12.826L13.3751 13.1177V10.7344H12.8334C12.2918 10.7344 11.8501 11.2177 11.8501 11.8094Z" fill="#1D223D"/>
</svg>
